<?xml version="1.0" standalone="no"?><!DOCTYPE svg PUBLIC "-//W3C//DTD SVG 1.1//EN" "http://www.w3.org/Graphics/SVG/1.1/DTD/svg11.dtd"><svg t="1765079767047" class="icon" viewBox="0 0 1024 1024" version="1.1" xmlns="http://www.w3.org/2000/svg" p-id="18138" xmlns:xlink="http://www.w3.org/1999/xlink" width="200" height="200"><path d="M993.09056 508.73344l-33.60256-24.32v189.12256h33.60256V508.73344zM880.64 710.4a215.808 215.808 0 0 1-13.184 28.032L1024 729.66656v-19.26656h-143.36z m-397.696 0H363.264l-14.40256 29.89056h-186.112l19.00544-33.60256H101.504L0 833.536l0.512 28.61056h93.24544l9.088-16.128h195.00544l-6.72256 13.89056 103.49056 1.72544 26.112-98.10944 88.448-4.992a216.77568 216.77568 0 0 1-26.23488-48.13312z m-166.21056 96.384h-191.744l15.488-27.264H329.984l-13.25056 27.264zM817.73056 382.27456v86.84544a213.12 213.12 0 0 1 73.53344 204.34944l38.46656 0.06656V463.04256l-112-80.768z m-180.99712-119.74656V424.96a211.90656 211.90656 0 0 1 151.23456 23.68V360.89344l-158.72-114.36544 5.24288 11.392 2.24256 4.608zM468.48 633.6c0-91.648 57.6-169.40544 138.42944-199.74656V272.896l-29.76256-64-159.29344-114.74944h-324.096l-7.87456 13.568-50.61632 86.97344-5.248 9.15456v468.80256h442.17856a211.28704 211.28704 0 0 1-3.71712-39.04512zM82.11456 225.664l37.376-64.256h272l33.85856 59.648v195.26656H82.11456V225.664zM110.848 577.024c-19.77344 0-35.77344-20.67456-35.77344-46.08 0-25.472 16-46.08 35.77344-46.08 19.77856 0 35.90656 20.608 35.90656 46.08s-16.128 46.08-35.90656 46.08z m280.76544 0c-19.77344 0-35.77344-20.67456-35.77344-46.08 0-25.472 16-46.08 35.77344-46.08 19.65056 0 35.65056 20.608 35.65056 46.08s-16 46.08-35.65056 46.08z" fill="#9B9B9B" p-id="18139"></path><path d="M966.97344 855.49056l-85.94944-86.33856a33.92 33.92 0 0 0-40.064-5.88288l-16.18944-16.256a181.48864 181.48864 0 0 0 39.552-113.408c0.25088-101.06368-81.4592-183.20384-182.528-183.48544-101.08928 0.17408-182.89664 82.26816-182.71744 183.35744v0.128c-0.10752 101.03808 81.67936 183.05536 182.71744 183.22944 42.75712 0 82.048-14.78144 113.024-39.68l16.19456 16.26112a34.17088 34.17088 0 0 0 5.88288 40.192l86.016 86.33344a33.97632 33.97632 0 0 0 48.13312 0l15.93344-16.06656a34.42688 34.42688 0 0 0-0.00512-48.384z m-285.184-93.95712c-70.69184 0-128-57.30304-128-128 0-71.04 57.28256-128.512 128-128.512 70.59456 0 128 57.472 128 128.512 0 70.69696-57.30304 128-128 128z" fill="#EF2B47" p-id="18140"></path></svg>